<svg xmlns="http://www.w3.org/2000/svg" width="1024" height="1024" viewBox="0 0 1024 1024" version="1.1"><path d="M 0 512.001 L 0 1024.002 512.250 1023.751 L 1024.500 1023.500 1024.751 511.750 L 1025.002 0 512.501 0 L 0 0 0 512.001 M 0.496 512.500 C 0.496 794.100, 0.610 909.151, 0.750 768.168 C 0.890 627.186, 0.890 396.786, 0.750 256.168 C 0.610 115.551, 0.496 230.900, 0.496 512.500 M 13 174.500 L 13 334 173 334 L 333 334 333 174.500 L 333 15 173 15 L 13 15 13 174.500 M 352 174.500 L 352 334 512 334 L 672 334 672 174.500 L 672 15 512 15 L 352 15 352 174.500 M 691 174.500 L 691 334 851 334 L 1011 334 1011 174.500 L 1011 15 851 15 L 691 15 691 174.500 M 13 511.997 L 13 672 173.003 672 L 333.006 672 332.753 512.250 L 332.500 352.500 172.750 352.247 L 13 351.994 13 511.997 M 691 512 L 691 672 851 672 L 1011 672 1011 512 L 1011 352 851 352 L 691 352 691 512 M 13 850 L 13 1010 173 1010 L 333 1010 333 850 L 333 690 173 690 L 13 690 13 850 M 352 850 L 352 1010 512 1010 L 672 1010 672 850 L 672 690 512 690 L 352 690 352 850 M 691 850 L 691 1010 851 1010 L 1011 1010 1011 850 L 1011 690 851 690 L 691 690 691 850" stroke="none" fill="#fcfbfb" fill-rule="evenodd"/><path d="M 13 174.500 L 13 334 173 334 L 333 334 333 174.500 L 333 15 173 15 L 13 15 13 174.500 M 352 174.500 L 352 334 512 334 L 672 334 672 174.500 L 672 15 512 15 L 352 15 352 174.500 M 691 174.500 L 691 334 851 334 L 1011 334 1011 174.500 L 1011 15 851 15 L 691 15 691 174.500 M 13 511.997 L 13 672 173.003 672 L 333.006 672 332.753 512.250 L 332.500 352.500 172.750 352.247 L 13 351.994 13 511.997 M 691 512 L 691 672 851 672 L 1011 672 1011 512 L 1011 352 851 352 L 691 352 691 512 M 13 850 L 13 1010 173 1010 L 333 1010 333 850 L 333 690 173 690 L 13 690 13 850 M 352 850 L 352 1010 512 1010 L 672 1010 672 850 L 672 690 512 690 L 352 690 352 850 M 691 850 L 691 1010 851 1010 L 1011 1010 1011 850 L 1011 690 851 690 L 691 690 691 850" stroke="none" fill="#fcdc24" fill-rule="evenodd"/></svg>